<?xml version="1.0" encoding="iso-8859-1"?>
<!-- Generator: Adobe Illustrator 19.0.0, SVG Export Plug-In . SVG Version: 6.00 Build 0)  -->
<svg version="1.1" id="Layer_1" xmlns="http://www.w3.org/2000/svg" xmlns:xlink="http://www.w3.org/1999/xlink" x="0px" y="0px"
	 viewBox="0 0 512 512" style="enable-background:new 0 0 512 512;" xml:space="preserve">
<path style="fill:#D7D5D9;" d="M71.312,336.543c0,0-104.503-200.378,188.304-226.92s223.659,190.949,115.622,223.791
	s-76.012,92.573-173.411,91.852C104.427,424.543,71.312,336.543,71.312,336.543z"/>
<path style="opacity:0.27;fill:#ACAAB1;enable-background:new    ;" d="M430.592,137.365c41.36,60.132-10.906,152.517-78.32,173.01
	c-108.038,32.841-76.012,92.574-173.411,91.852c-37.531-0.278-65.509-13.519-85.733-29.687
	c19.674,24.408,54.091,52.32,108.771,52.726c97.399,0.722,65.374-59.01,173.411-91.852
	C452.145,310.057,509.308,193.306,430.592,137.365z"/>
<g>
	<path style="fill:#D7D5D9;" d="M39.63,463.372c-10.739-3.044-29.602-5.639-38.529,22.553
		c-8.927,28.192,38.529,33.361,66.252,15.976C95.075,484.516,51.047,466.609,39.63,463.372z"/>
	<circle style="fill:#D7D5D9;" cx="389.464" cy="67.329" r="15.643"/>
	<circle style="fill:#D7D5D9;" cx="153.387" cy="477.223" r="15.643"/>
</g>
<g>
	<path style="fill:#ACAAB1;" d="M362.527,173.462c-5.743-0.497-28.246-3.816-48.433-7.01c-4.258-0.674-8.272,2.237-8.948,6.502
		c-0.675,4.266,2.237,8.273,6.503,8.948c11.85,1.875,21.038,3.292,28.213,4.353c-17.344,12.524-28.514,26.932-29.231,27.869
		c-2.622,3.429-1.968,8.331,1.458,10.956c1.418,1.087,3.09,1.612,4.75,1.612c2.349,0,4.672-1.053,6.214-3.06
		c0.212-0.275,18.828-24.222,43.901-35.076c0.075-0.032,0.151-0.066,0.227-0.099c3.567-1.53,7.262-2.796,11.053-3.688
		c35.272-8.299,64.88-34.074,66.123-35.168c0.073-0.064,0.137-0.135,0.206-0.2c-3.519-3.657-7.466-7.145-11.859-10.436
		c-5.885,4.843-30.558,24.107-58.054,30.576C370.476,170.527,366.429,171.871,362.527,173.462z"/>
	<path style="fill:#ACAAB1;" d="M176.255,382.055c28.858-5.458,33.872-33.187,34.071-34.364c0.057-0.339,0.073-0.294,0.08-0.536
		c0.341-1.56,4.971-18.379,45.275-23.167c4.289-0.51,7.354-4.4,6.844-8.69c-0.508-4.289-4.398-7.355-8.689-6.844
		c-22.597,2.684-39.254,9.268-49.506,19.566c-7.611,7.646-9.147,14.831-9.453,17.179c-0.403,1.967-4.242,18.214-21.53,21.485
		c-25.517,4.827-42.049,33.179-44.631,37.879c4.289,2.699,8.858,5.228,13.709,7.534
		C146.507,404.469,159.987,385.134,176.255,382.055z"/>
	<path style="fill:#ACAAB1;" d="M227.661,391.482c4.145-1.216,6.52-5.562,5.304-9.706c-1.216-4.145-5.562-6.522-9.706-5.304
		c-30.512,8.947-49.571,42.199-50.368,43.61c-0.369,0.654-0.628,1.339-0.793,2.036c5.225,1.108,10.686,1.949,16.394,2.483
		C193.561,416.87,208.044,397.234,227.661,391.482z"/>
	<path style="fill:#ACAAB1;" d="M63.771,218.302c0.084-0.016,9.463-0.442,23.649,13.744c2.735,2.737,5.11,5.257,7.205,7.481
		c11.255,11.95,17.831,17.97,37.012,17.97c2.605,0,5.444-0.111,8.557-0.334c4.309-0.308,7.553-4.051,7.245-8.359
		c-0.308-4.308-4.055-7.553-8.359-7.245c-19.727,1.408-22.023-1.032-33.067-12.758c-2.17-2.304-4.629-4.915-7.532-7.817
		c-14.4-14.401-26.343-17.612-32.58-18.179c-2.485,4.971-4.545,9.992-6.229,15.022C60.931,218.332,62.334,218.524,63.771,218.302z"
		/>
	<path style="fill:#ACAAB1;" d="M111.909,162.709c0.211-0.154,21.165-15.322,35.198-4.245c1.188,0.937,1.647,1.648,1.679,1.971
		c0.23,2.291-4.615,8.022-7.51,11.447c-5.697,6.738-11.588,13.707-10.836,22.137c0.4,4.475,2.62,8.41,6.597,11.698
		c18.19,15.033,31.953,2.239,45.26-10.135c4.107-3.819,8.355-7.767,13.283-11.713c3.946-3.16,7.38-4.577,8.958-3.693
		c3.836,2.143,7.988,15.268,5.21,37.74c-0.53,4.287,2.515,8.192,6.803,8.723c0.326,0.041,0.65,0.06,0.97,0.06
		c3.891,0,7.263-2.902,7.753-6.863c0.775-6.27,1.099-12.154,1.002-17.583c1.338-3.137,6.256-12.707,16.602-13.135
		c4.316-0.178,7.67-3.822,7.492-8.138c-0.178-4.315-3.817-7.687-8.138-7.492c-8.262,0.341-14.564,3.522-19.272,7.496
		c-2.388-6.821-6.021-11.799-10.793-14.465c-5.36-2.994-14.284-4.532-26.363,5.137c-5.38,4.306-10.044,8.642-14.158,12.469
		c-15.116,14.054-17.88,15.124-24.643,9.534c-0.843-0.696-0.978-1.045-0.981-1.035c-0.164-1.934,4.626-7.598,7.2-10.643
		c5.636-6.666,12.024-14.222,11.129-23.113c-0.488-4.845-3.029-9.113-7.55-12.684c-6.391-5.045-13.257-7.083-19.886-7.383
		c-14.196,6.608-26.142,13.993-36.149,21.926c0.07,0.105,0.132,0.213,0.209,0.315C103.535,164.522,108.43,165.268,111.909,162.709z"
		/>
	<path style="fill:#ACAAB1;" d="M466.124,211.243c-1.784,0.398-26.811,6.072-52.801,16.156c-0.084-5.832-1.648-10.921-3.853-15.123
		c24.036-4.103,43.301-14.408,54.956-29.366c-1.658-5.411-3.871-10.692-6.696-15.781c-2.037,1.024-3.214,2.768-3.718,3.523
		c-9.172,13.767-26.773,23.219-49.559,26.612c-3.829,0.57-7.456,1.283-10.92,2.089c-0.126,0.024-0.25,0.056-0.376,0.087
		c-38.74,9.144-54.797,31.53-55.519,32.565c-0.051,0.072-0.1,0.145-0.148,0.219c-7.177,11.059-30.613,38.833-52.584,34.635
		c-4.243-0.808-8.34,1.972-9.15,6.214c-0.811,4.242,1.971,8.34,6.214,9.151c2.572,0.491,5.106,0.72,7.611,0.72
		c32.504-0.005,58.669-38.615,60.918-42.029c1.102-1.498,13.38-17.407,42.444-25.301c2.793,3.009,6.696,9.279,3.648,18.923
		c-13.177,6.207-25.317,13.553-33.296,21.92c-2.981,3.127-2.864,8.077,0.263,11.059c1.514,1.444,3.456,2.161,5.397,2.161
		c2.064,0,4.125-0.812,5.662-2.424c20.681-21.689,78.47-36.756,92.039-40.059c0.935-5.376,1.472-10.765,1.576-16.121
		C467.538,211.036,466.833,211.085,466.124,211.243z"/>
	<path style="fill:#ACAAB1;" d="M197.877,288.397c-4.024-1.57-8.56,0.422-10.128,4.447c-4.861,12.469-18.213,19.795-18.414,19.903
		c-3.801,2.027-5.248,6.751-3.231,10.56c1.404,2.651,4.114,4.163,6.919,4.163c1.234,0,2.486-0.293,3.653-0.91
		c0.757-0.4,18.627-10.026,25.648-28.035C203.892,294.501,201.903,289.967,197.877,288.397z"/>
	<path style="fill:#ACAAB1;" d="M30.959,508.121c-12.632-22.692,9.888-36.435,12.519-37.939c1.729-0.977,2.937-2.516,3.537-4.259
		c-2.996-1.172-5.593-2.043-7.386-2.551c-3.105-0.88-6.89-1.718-10.916-1.79c-3,2.493-6.495,5.881-9.532,10.109
		c-8.253,11.488-9.884,24.667-4.854,37.702c5.094,1.774,11.177,2.614,17.616,2.524C31.944,510.63,31.629,509.325,30.959,508.121z"/>
</g>
<g>
	<path style="fill:#D7D5D9;" d="M463.366,0.476c0.385-0.073,0.774-0.133,1.165-0.186C464.14,0.342,463.752,0.402,463.366,0.476z"/>
	<path style="fill:#D7D5D9;" d="M448.066,80.374c-0.295-0.139-0.574-0.292-0.856-0.441C447.492,80.082,447.77,80.234,448.066,80.374
		z"/>
	<path style="fill:#D7D5D9;" d="M462.195,0.738c0.378-0.097,0.758-0.184,1.142-0.258C462.954,0.555,462.574,0.641,462.195,0.738z"/>
	<path style="fill:#D7D5D9;" d="M464.697,0.268c0.383-0.048,0.769-0.087,1.157-0.116C465.466,0.182,465.08,0.22,464.697,0.268z"/>
	<path style="fill:#D7D5D9;" d="M449.588,81.025c-0.299-0.116-0.581-0.245-0.869-0.369
		C449.007,80.779,449.288,80.909,449.588,81.025z"/>
	<path style="fill:#D7D5D9;" d="M446.648,79.64c-0.289-0.164-0.561-0.342-0.836-0.517C446.087,79.298,446.359,79.475,446.648,79.64z
		"/>
	<path style="fill:#D7D5D9;" d="M444.123,77.919c-0.264-0.215-0.512-0.444-0.76-0.673C443.611,77.475,443.858,77.703,444.123,77.919
		z"/>
	<path style="fill:#D7D5D9;" d="M462.11,82.656c-0.337,0.063-0.673,0.116-1.006,0.16C461.437,82.771,461.772,82.718,462.11,82.656z"
		/>
	<path style="fill:#D7D5D9;" d="M443.011,76.929c-0.248-0.242-0.481-0.497-0.713-0.753
		C442.531,76.432,442.763,76.687,443.011,76.929z"/>
	<path style="fill:#D7D5D9;" d="M460.978,1.096c0.365-0.121,0.731-0.233,1.101-0.33C461.71,0.865,461.343,0.975,460.978,1.096z"/>
	<path style="fill:#D7D5D9;" d="M459.719,1.57c0.362-0.153,0.726-0.29,1.093-0.416C460.445,1.28,460.08,1.416,459.719,1.57z"/>
	<path style="fill:#D7D5D9;" d="M445.335,78.822c-0.278-0.19-0.54-0.393-0.803-0.594C444.795,78.429,445.056,78.632,445.335,78.822z
		"/>
	<path style="fill:#D7D5D9;" d="M457.442,2.747c0.348-0.215,0.7-0.416,1.054-0.601C458.14,2.331,457.79,2.532,457.442,2.747z"/>
	<path style="fill:#D7D5D9;" d="M459.317,82.959c-0.341,0.009-0.68,0.007-1.018-0.006C458.636,82.965,458.975,82.967,459.317,82.959
		z"/>
	<path style="fill:#D7D5D9;" d="M472.682,0.367c0.425,0.047,0.854,0.098,1.286,0.153C473.536,0.465,473.108,0.414,472.682,0.367z"/>
	<path style="fill:#D7D5D9;" d="M474.135,0.542c0.905,0.118,1.823,0.25,2.754,0.392C475.958,0.793,475.04,0.66,474.135,0.542z"/>
	<path style="fill:#D7D5D9;" d="M457.962,82.937c-0.408-0.025-0.813-0.059-1.215-0.118
		C457.149,82.878,457.554,82.913,457.962,82.937z"/>
	<path style="fill:#D7D5D9;" d="M460.794,82.857c-0.415,0.047-0.829,0.081-1.239,0.098
		C459.965,82.937,460.378,82.904,460.794,82.857z"/>
	<path style="fill:#D7D5D9;" d="M476.929,0.941c0.481,0.073,0.964,0.149,1.451,0.225C477.893,1.09,477.409,1.014,476.929,0.941z"/>
	<path style="fill:#D7D5D9;" d="M465.995,0.143c0.804-0.056,1.621-0.074,2.449-0.062C467.616,0.069,466.799,0.087,465.995,0.143z"/>
	<path style="fill:#D7D5D9;" d="M451.216,81.594c-0.297-0.094-0.577-0.2-0.865-0.3C450.639,81.394,450.918,81.5,451.216,81.594z"/>
	<path style="fill:#D7D5D9;" d="M452.951,82.082c-0.288-0.072-0.558-0.156-0.837-0.235C452.393,81.926,452.663,82.01,452.951,82.082
		z"/>
	<path style="fill:#D7D5D9;" d="M454.794,82.491c-0.244-0.047-0.472-0.105-0.711-0.156
		C454.321,82.384,454.551,82.443,454.794,82.491z"/>
	<path style="fill:#D7D5D9;" d="M469.976,0.138c0.846,0.048,1.702,0.122,2.572,0.216C471.678,0.259,470.821,0.186,469.976,0.138z"/>
	<path style="fill:#D7D5D9;" d="M468.596,0.083c0.404,0.008,0.809,0.023,1.218,0.045C469.406,0.106,469,0.092,468.596,0.083z"/>
	<path style="fill:#D7D5D9;" d="M458.569,2.109c0.356-0.183,0.713-0.351,1.074-0.506C459.282,1.757,458.925,1.926,458.569,2.109z"/>
	<path style="fill:#D7D5D9;" d="M437.224,62.07c-0.032-0.553-0.051-1.119-0.063-1.696C437.173,60.95,437.192,61.517,437.224,62.07z"
		/>
	<path style="fill:#D7D5D9;" d="M440.384,37.473c0.236-0.965,0.484-1.946,0.745-2.944C440.868,35.527,440.62,36.509,440.384,37.473z
		"/>
	<path style="fill:#D7D5D9;" d="M437.751,51.051c0.097-0.745,0.206-1.505,0.327-2.278C437.958,49.546,437.848,50.307,437.751,51.051
		z"/>
	<path style="fill:#D7D5D9;" d="M442.001,75.853c-0.232-0.269-0.447-0.553-0.661-0.838C441.553,75.3,441.769,75.584,442.001,75.853z
		"/>
	<path style="fill:#D7D5D9;" d="M437.383,63.978c-0.056-0.517-0.1-1.049-0.137-1.589C437.283,62.928,437.327,63.46,437.383,63.978z"
		/>
	<path style="fill:#D7D5D9;" d="M437.154,60.065c-0.007-0.588-0.001-1.192,0.013-1.805
		C437.153,58.873,437.147,59.477,437.154,60.065z"/>
	<path style="fill:#D7D5D9;" d="M437.473,53.454c0.071-0.703,0.153-1.421,0.246-2.153C437.626,52.032,437.543,52.751,437.473,53.454
		z"/>
	<path style="fill:#D7D5D9;" d="M438.113,48.545c0.124-0.786,0.261-1.589,0.409-2.405C438.374,46.956,438.237,47.758,438.113,48.545
		z"/>
	<path style="fill:#D7D5D9;" d="M439.086,43.22c0.179-0.874,0.371-1.764,0.576-2.67C439.457,41.457,439.265,42.347,439.086,43.22z"
		/>
	<path style="fill:#D7D5D9;" d="M437.633,65.789c-0.081-0.483-0.148-0.979-0.209-1.484
		C437.485,64.809,437.552,65.306,437.633,65.789z"/>
	<path style="fill:#D7D5D9;" d="M437.28,55.759c0.044-0.664,0.101-1.342,0.168-2.033C437.381,54.415,437.324,55.095,437.28,55.759z"
		/>
	<path style="fill:#D7D5D9;" d="M438.558,45.935c0.152-0.83,0.316-1.675,0.491-2.535C438.874,44.26,438.71,45.106,438.558,45.935z"
		/>
	<path style="fill:#D7D5D9;" d="M437.173,57.961c0.019-0.626,0.049-1.267,0.09-1.919C437.223,56.694,437.192,57.336,437.173,57.961z
		"/>
	<path style="fill:#D7D5D9;" d="M441.152,34.442c0.265-1.014,0.542-2.044,0.833-3.093C441.694,32.398,441.417,33.43,441.152,34.442z
		"/>
	<path style="fill:#D7D5D9;" d="M437.974,67.506c-0.104-0.451-0.195-0.915-0.28-1.385C437.779,66.591,437.869,67.055,437.974,67.506
		z"/>
	<path style="fill:#D7D5D9;" d="M454.088,5.395c0.333-0.327,0.667-0.639,1.006-0.931C454.756,4.755,454.42,5.067,454.088,5.395z"/>
	<path style="fill:#D7D5D9;" d="M455.123,4.44c0.34-0.291,0.682-0.562,1.028-0.819C455.805,3.877,455.462,4.149,455.123,4.44z"/>
	<path style="fill:#D7D5D9;" d="M441.089,74.688c-0.213-0.297-0.41-0.609-0.604-0.922C440.679,74.08,440.877,74.391,441.089,74.688z
		"/>
	<path style="fill:#D7D5D9;" d="M456.255,3.542c0.34-0.249,0.683-0.48,1.028-0.698C456.938,3.062,456.595,3.293,456.255,3.542z"/>
	<path style="fill:#D7D5D9;" d="M439.556,72.089c-0.171-0.356-0.328-0.725-0.481-1.099
		C439.229,71.364,439.385,71.735,439.556,72.089z"/>
	<path style="fill:#D7D5D9;" d="M440.275,73.434c-0.192-0.325-0.369-0.665-0.543-1.008
		C439.905,72.769,440.082,73.109,440.275,73.434z"/>
	<path style="fill:#D7D5D9;" d="M449.88,10.822c0.299-0.491,0.602-0.962,0.907-1.412C450.481,9.859,450.179,10.331,449.88,10.822z"
		/>
	<path style="fill:#D7D5D9;" d="M438.407,69.126c-0.127-0.418-0.241-0.85-0.349-1.288C438.166,68.276,438.28,68.708,438.407,69.126z
		"/>
	<path style="fill:#D7D5D9;" d="M452.976,6.568c0.319-0.361,0.641-0.703,0.966-1.028C453.616,5.864,453.295,6.206,452.976,6.568z"/>
	<path style="fill:#D7D5D9;" d="M450.916,9.221c0.633-0.92,1.279-1.755,1.936-2.51C452.195,7.466,451.55,8.301,450.916,9.221z"/>
	<path style="fill:#D7D5D9;" d="M438.935,70.654c-0.15-0.386-0.286-0.786-0.416-1.192C438.649,69.868,438.785,70.268,438.935,70.654
		z"/>
	<path style="fill:#D7D5D9;" d="M439.695,40.401c0.208-0.918,0.428-1.853,0.659-2.804C440.123,38.549,439.902,39.483,439.695,40.401
		z"/>
	<path style="fill:#D7D5D9;" d="M482.821,69.946c-0.41,0.395-0.822,0.785-1.235,1.168C481.999,70.731,482.411,70.341,482.821,69.946
		z"/>
	<path style="fill:#D7D5D9;" d="M481.473,71.221c-0.449,0.415-0.901,0.822-1.354,1.221
		C480.571,72.042,481.022,71.637,481.473,71.221z"/>
	<path style="fill:#D7D5D9;" d="M487.202,65.449c-0.409,0.446-0.821,0.886-1.235,1.322
		C486.382,66.336,486.794,65.895,487.202,65.449z"/>
	<path style="fill:#D7D5D9;" d="M488.634,63.861c-0.445,0.504-0.894,1.003-1.345,1.497
		C487.739,64.863,488.188,64.365,488.634,63.861z"/>
	<path style="fill:#D7D5D9;" d="M479.862,72.667c-0.378,0.331-0.756,0.655-1.135,0.973
		C479.105,73.322,479.484,72.997,479.862,72.667z"/>
	<path style="fill:#D7D5D9;" d="M476.936,75.095c-0.394,0.309-0.788,0.609-1.184,0.904
		C476.148,75.704,476.542,75.403,476.936,75.095z"/>
	<path style="fill:#D7D5D9;" d="M475.42,76.245c-0.433,0.318-0.867,0.63-1.3,0.929C474.553,76.875,474.986,76.563,475.42,76.245z"/>
	<path style="fill:#D7D5D9;" d="M510.129,30.706c-0.206,0.498-0.424,1.006-0.656,1.526
		C509.705,31.712,509.923,31.204,510.129,30.706z"/>
	<path style="fill:#D7D5D9;" d="M489.965,62.328c-0.407,0.477-0.817,0.949-1.23,1.416C489.148,63.277,489.558,62.804,489.965,62.328
		z"/>
	<path style="fill:#D7D5D9;" d="M478.454,73.869c-0.449,0.373-0.899,0.739-1.35,1.095C477.555,74.609,478.004,74.243,478.454,73.869
		z"/>
	<path style="fill:#D7D5D9;" d="M449.746,11.044c-0.309,0.513-0.614,1.044-0.917,1.603l0,0
		C449.132,12.087,449.439,11.557,449.746,11.044z"/>
	<path style="fill:#D7D5D9;" d="M501.246,47.13c-0.725,1.123-1.476,2.254-2.251,3.384C499.77,49.384,500.521,48.254,501.246,47.13z"
		/>
	<path style="fill:#D7D5D9;" d="M498.974,50.545c-1.156,1.685-2.364,3.373-3.617,5.043C496.61,53.918,497.819,52.231,498.974,50.545
		z"/>
	<path style="fill:#D7D5D9;" d="M508.615,34.096L508.615,34.096c0.271-0.568,0.527-1.123,0.772-1.671
		C509.141,32.973,508.886,33.529,508.615,34.096z"/>
	<path style="fill:#D7D5D9;" d="M507.017,9.364c-0.54-0.597-1.132-1.169-1.779-1.711C505.885,8.195,506.477,8.768,507.017,9.364z"/>
	<path style="fill:#D7D5D9;" d="M495.315,55.646c-0.82,1.092-1.658,2.175-2.513,3.248C493.657,57.822,494.495,56.737,495.315,55.646
		z"/>
	<path style="fill:#D7D5D9;" d="M474.075,77.206c-0.446,0.308-0.894,0.603-1.341,0.89C473.181,77.807,473.628,77.513,474.075,77.206
		z"/>
	<path style="fill:#D7D5D9;" d="M483.083,69.694c0.898-0.872,1.79-1.773,2.672-2.697C484.873,67.921,483.982,68.821,483.083,69.694z
		"/>
	<path style="fill:#D7D5D9;" d="M492.682,59.043c-0.846,1.057-1.707,2.102-2.583,3.13C490.974,61.144,491.836,60.1,492.682,59.043z"
		/>
	<path style="fill:#D7D5D9;" d="M442.92,28.057c-0.32,1.1-0.628,2.183-0.922,3.246C442.292,30.239,442.599,29.158,442.92,28.057
		L442.92,28.057z"/>
	<path style="fill:#D7D5D9;" d="M500.653,4.823c1.329,0.587,2.514,1.275,3.571,2.04C503.168,6.099,501.982,5.412,500.653,4.823z"/>
	<path style="fill:#D7D5D9;" d="M487.465,2.432c0.091,0.009,0.181,0.019,0.273,0.027C487.647,2.451,487.556,2.441,487.465,2.432z"/>
	<path style="fill:#D7D5D9;" d="M510.795,29.029c-0.176,0.467-0.366,0.948-0.567,1.438
		C510.428,29.977,510.619,29.496,510.795,29.029z"/>
	<path style="fill:#D7D5D9;" d="M471.025,79.141c-0.44,0.256-0.879,0.498-1.318,0.731C470.146,79.64,470.585,79.397,471.025,79.141z
		"/>
	<path style="fill:#D7D5D9;" d="M489.138,2.58c0.086,0.006,0.17,0.013,0.255,0.018C489.309,2.592,489.223,2.586,489.138,2.58z"/>
	<path style="fill:#D7D5D9;" d="M482.725,1.838c0.103,0.016,0.206,0.03,0.311,0.045C482.933,1.868,482.828,1.853,482.725,1.838z"/>
	<path style="fill:#D7D5D9;" d="M484.371,2.069c0.078,0.01,0.157,0.021,0.237,0.031C484.529,2.09,484.449,2.08,484.371,2.069z"/>
	<path style="fill:#D7D5D9;" d="M469.412,80.024c-0.356,0.185-0.711,0.361-1.066,0.53C468.701,80.385,469.056,80.209,469.412,80.024
		z"/>
	<path style="fill:#D7D5D9;" d="M478.388,1.167c0.555,0.088,1.115,0.176,1.678,0.264C479.503,1.343,478.944,1.255,478.388,1.167z"/>
	<path style="fill:#D7D5D9;" d="M468,80.718c-0.438,0.202-0.875,0.394-1.31,0.571C467.125,81.112,467.562,80.919,468,80.718z"/>
	<path style="fill:#D7D5D9;" d="M485.952,2.268c0.035,0.004,0.072,0.009,0.107,0.014C486.023,2.278,485.987,2.272,485.952,2.268z"/>
	<path style="fill:#D7D5D9;" d="M466.557,81.34c-0.394,0.157-0.787,0.302-1.178,0.439C465.77,81.643,466.163,81.497,466.557,81.34z"
		/>
	<path style="fill:#D7D5D9;" d="M463.711,82.296c-0.425,0.114-0.849,0.212-1.27,0.297C462.864,82.508,463.286,82.411,463.711,82.296
		z"/>
	<path style="fill:#D7D5D9;" d="M511.368,27.42c-0.151,0.456-0.321,0.929-0.501,1.412C511.047,28.35,511.217,27.876,511.368,27.42z"
		/>
	<path style="fill:#D7D5D9;" d="M465.02,81.9c-0.375,0.124-0.751,0.24-1.124,0.343C464.269,82.139,464.645,82.024,465.02,81.9z"/>
	<path style="fill:#D7D5D9;" d="M472.395,78.309c-0.366,0.23-0.732,0.455-1.098,0.671C471.662,78.764,472.028,78.54,472.395,78.309z
		"/>
	<path style="fill:#D7D5D9;" d="M511.49,18.223c0.222,1.003,0.365,1.99,0.442,2.937C511.855,20.213,511.712,19.227,511.49,18.223z"
		/>
	<path style="fill:#D7D5D9;" d="M509.663,13.172c0.347,0.663,0.65,1.337,0.911,2.013C510.313,14.509,510.01,13.835,509.663,13.172z"
		/>
	<path style="fill:#D7D5D9;" d="M481.135,1.598c0.101,0.016,0.202,0.031,0.303,0.047C481.337,1.629,481.236,1.613,481.135,1.598z"/>
	<path style="fill:#D7D5D9;" d="M507.789,10.276c0.733,0.927,1.354,1.901,1.874,2.896C509.142,12.177,508.522,11.204,507.789,10.276
		z"/>
</g>
<g>
	<path style="fill:#ACAAB1;" d="M501.248,47.129c2.953-4.578,5.469-9.05,7.368-13.033l0,0
		C506.717,38.079,504.2,42.55,501.248,47.129z"/>
	<path style="fill:#ACAAB1;" d="M443.392,26.432c-0.164,0.552-0.315,1.084-0.472,1.626l0,0
		C443.077,27.515,443.228,26.982,443.392,26.432z"/>
	<path style="fill:#ACAAB1;" d="M444.163,23.955c0.14-0.432,0.281-0.858,0.421-1.276C444.443,23.096,444.302,23.522,444.163,23.955z
		"/>
	<path style="fill:#ACAAB1;" d="M445.405,20.357c0.201-0.543,0.404-1.075,0.607-1.591C445.808,19.282,445.606,19.815,445.405,20.357
		z"/>
	<path style="fill:#ACAAB1;" d="M448.83,12.646L448.83,12.646c-0.222,0.411-0.443,0.838-0.662,1.274
		C448.386,13.484,448.607,13.058,448.83,12.646z"/>
	<path style="fill:#ACAAB1;" d="M443.392,26.432c0.194-0.652,0.39-1.284,0.587-1.905C443.782,25.147,443.586,25.78,443.392,26.432z"
		/>
	<path style="fill:#ACAAB1;" d="M444.788,22.082c0.144-0.415,0.289-0.823,0.434-1.223C445.077,21.26,444.932,21.667,444.788,22.082z
		"/>
	<path style="fill:#ACAAB1;" d="M446.022,18.741c0.212-0.535,0.425-1.052,0.641-1.558C446.448,17.688,446.234,18.206,446.022,18.741
		z"/>
	<path style="fill:#ACAAB1;" d="M447.506,15.29c0.163-0.348,0.326-0.689,0.491-1.023C447.833,14.6,447.669,14.941,447.506,15.29z"/>
	<path style="fill:#ACAAB1;" d="M446.822,16.815c0.163-0.375,0.325-0.745,0.49-1.104C447.147,16.071,446.985,16.44,446.822,16.815z"
		/>
</g>
<g>
	<path style="fill:#D7D5D9;" d="M508.615,34.096c0.271-0.567,0.527-1.123,0.772-1.671c0.029-0.065,0.058-0.13,0.088-0.194
		c0.23-0.519,0.448-1.027,0.656-1.526c0.033-0.08,0.066-0.16,0.098-0.239c0.201-0.49,0.391-0.971,0.567-1.438
		c0.025-0.066,0.048-0.13,0.072-0.196c0.179-0.483,0.349-0.956,0.501-1.412c0.5-1.503,0.768-3.738,0.563-6.261
		c-0.076-0.946-0.22-1.932-0.442-2.937s-0.522-2.024-0.916-3.039c-0.262-0.676-0.564-1.349-0.911-2.013
		c-0.52-0.995-1.141-1.969-1.874-2.896c-0.244-0.31-0.502-0.613-0.772-0.911c-0.54-0.597-1.132-1.169-1.779-1.711
		c-0.324-0.271-0.661-0.535-1.014-0.789c-1.056-0.764-2.242-1.453-3.571-2.04c-2.656-1.175-5.882-1.949-9.777-2.135
		c-0.497-0.024-0.991-0.055-1.483-0.091c-0.086-0.006-0.171-0.011-0.255-0.018c-0.469-0.035-0.935-0.076-1.401-0.121
		c-0.091-0.008-0.182-0.018-0.273-0.027c-0.471-0.047-0.94-0.097-1.406-0.151c-0.036-0.004-0.072-0.008-0.107-0.014
		c-0.451-0.053-0.898-0.11-1.344-0.168c-0.079-0.01-0.159-0.021-0.237-0.031c-0.447-0.059-0.893-0.122-1.335-0.186
		c-0.104-0.015-0.208-0.03-0.311-0.045c-0.432-0.064-0.86-0.127-1.287-0.193c-0.101-0.016-0.202-0.031-0.303-0.047
		c-0.358-0.055-0.713-0.111-1.068-0.167c-0.563-0.089-1.124-0.177-1.678-0.264c-0.003,0-0.006-0.001-0.009-0.001
		c-0.487-0.076-0.971-0.152-1.451-0.225c-0.014-0.002-0.026-0.004-0.04-0.006c-0.931-0.142-1.848-0.274-2.754-0.392
		c-0.055-0.007-0.112-0.015-0.167-0.022c-0.432-0.055-0.86-0.106-1.286-0.153c-0.045-0.005-0.09-0.009-0.135-0.015
		c-0.87-0.094-1.727-0.168-2.572-0.216c-0.054-0.003-0.107-0.006-0.162-0.009c-0.409-0.022-0.814-0.037-1.218-0.045
		c-0.051-0.001-0.101-0.001-0.152-0.002c-0.828-0.013-1.645,0.005-2.449,0.062c-0.047,0.003-0.095,0.006-0.142,0.009
		c-0.388,0.029-0.774,0.068-1.157,0.116c-0.055,0.007-0.111,0.015-0.166,0.022c-0.391,0.052-0.779,0.112-1.165,0.186
		c-0.009,0.002-0.02,0.004-0.029,0.006c-0.384,0.074-0.764,0.161-1.142,0.258c-0.039,0.009-0.077,0.019-0.116,0.029
		c-0.37,0.097-0.737,0.208-1.101,0.33c-0.055,0.019-0.111,0.038-0.166,0.056c-0.367,0.126-0.732,0.264-1.093,0.416
		c-0.025,0.01-0.05,0.023-0.075,0.033c-0.361,0.154-0.719,0.323-1.074,0.506c-0.025,0.013-0.049,0.024-0.074,0.038
		c-0.355,0.185-0.705,0.386-1.054,0.601c-0.052,0.032-0.105,0.065-0.157,0.098c-0.345,0.218-0.688,0.448-1.028,0.698
		c-0.034,0.026-0.07,0.053-0.104,0.079c-0.345,0.257-0.688,0.528-1.028,0.819c-0.009,0.008-0.019,0.016-0.029,0.024
		c-0.338,0.291-0.674,0.604-1.006,0.931c-0.049,0.048-0.098,0.096-0.147,0.145c-0.324,0.325-0.647,0.667-0.966,1.028
		c-0.042,0.047-0.082,0.096-0.123,0.143c-0.657,0.755-1.303,1.59-1.936,2.51c-0.044,0.063-0.087,0.125-0.13,0.189
		c-0.306,0.451-0.608,0.921-0.907,1.412c-0.045,0.073-0.089,0.148-0.133,0.222c-0.309,0.513-0.614,1.044-0.917,1.603
		C459.991,11.212,490.321,9.926,508.615,34.096z"/>
	<path style="fill:#D7D5D9;" d="M496.586,44.098c-16.187-22.215-48.375-15.541-48.695-15.471c-1.744,0.376-3.473,0.133-4.971-0.569
		c-0.32,1.1-0.628,2.183-0.922,3.246c-0.004,0.016-0.008,0.03-0.012,0.046c-0.29,1.049-0.567,2.08-0.833,3.093
		c-0.007,0.029-0.015,0.057-0.022,0.087c-0.261,0.999-0.509,1.98-0.745,2.944c-0.01,0.042-0.02,0.082-0.03,0.124
		c-0.231,0.951-0.452,1.886-0.659,2.804c-0.011,0.05-0.022,0.099-0.033,0.149c-0.203,0.906-0.395,1.796-0.576,2.67
		c-0.013,0.059-0.024,0.119-0.036,0.178c-0.175,0.86-0.34,1.706-0.491,2.535c-0.013,0.069-0.024,0.136-0.036,0.204
		c-0.148,0.817-0.285,1.619-0.409,2.405c-0.013,0.076-0.023,0.152-0.035,0.228c-0.12,0.774-0.229,1.533-0.327,2.278
		c-0.01,0.084-0.021,0.167-0.031,0.251c-0.093,0.731-0.176,1.45-0.246,2.153c-0.009,0.091-0.017,0.18-0.025,0.271
		c-0.067,0.69-0.123,1.369-0.168,2.033c-0.006,0.096-0.01,0.189-0.017,0.284c-0.041,0.652-0.071,1.292-0.09,1.919
		c-0.003,0.1-0.003,0.198-0.006,0.298c-0.015,0.613-0.02,1.216-0.012,1.805c0.001,0.104,0.005,0.206,0.007,0.31
		c0.01,0.576,0.03,1.143,0.063,1.696c0.006,0.107,0.016,0.212,0.023,0.318c0.035,0.54,0.079,1.072,0.137,1.589
		c0.013,0.111,0.028,0.218,0.041,0.327c0.06,0.505,0.127,1.001,0.209,1.484c0.019,0.113,0.042,0.22,0.061,0.331
		c0.084,0.471,0.175,0.935,0.28,1.385c0.026,0.113,0.057,0.221,0.084,0.333c0.108,0.438,0.221,0.87,0.349,1.288
		c0.035,0.115,0.075,0.223,0.112,0.336c0.13,0.406,0.266,0.805,0.416,1.192c0.045,0.115,0.095,0.223,0.141,0.337
		c0.152,0.373,0.31,0.744,0.481,1.099c0.055,0.115,0.117,0.223,0.174,0.336c0.174,0.343,0.351,0.682,0.543,1.008
		c0.067,0.114,0.141,0.22,0.211,0.332c0.195,0.314,0.392,0.625,0.604,0.922c0.08,0.112,0.168,0.217,0.25,0.326
		c0.214,0.285,0.43,0.568,0.661,0.838c0.096,0.112,0.199,0.215,0.298,0.323c0.232,0.257,0.465,0.512,0.713,0.753
		c0.113,0.11,0.235,0.211,0.35,0.317c0.248,0.228,0.496,0.458,0.76,0.673c0.131,0.107,0.273,0.205,0.409,0.309
		c0.263,0.202,0.525,0.405,0.803,0.594c0.153,0.104,0.319,0.199,0.477,0.3c0.275,0.175,0.548,0.354,0.836,0.517
		c0.18,0.103,0.374,0.195,0.561,0.293c0.283,0.149,0.561,0.302,0.856,0.441c0.211,0.099,0.436,0.188,0.653,0.282
		c0.288,0.125,0.569,0.253,0.869,0.369c0.247,0.096,0.509,0.179,0.763,0.269c0.287,0.101,0.567,0.208,0.865,0.3
		c0.291,0.091,0.598,0.17,0.898,0.253c0.28,0.078,0.55,0.163,0.837,0.235c0.367,0.092,0.752,0.17,1.133,0.251
		c0.239,0.051,0.467,0.11,0.711,0.156c0.633,0.123,1.284,0.233,1.953,0.33c0.402,0.058,0.807,0.093,1.215,0.118
		c0.112,0.006,0.224,0.011,0.337,0.016c0.338,0.013,0.677,0.016,1.018,0.006c0.079-0.002,0.159-0.001,0.239-0.004
		c0.411-0.017,0.824-0.051,1.239-0.098c0.102-0.011,0.205-0.027,0.309-0.041c0.334-0.044,0.67-0.097,1.006-0.16
		c0.111-0.021,0.221-0.04,0.332-0.063c0.421-0.086,0.845-0.184,1.27-0.297c0.062-0.017,0.123-0.037,0.185-0.053
		c0.373-0.103,0.748-0.219,1.124-0.343c0.119-0.04,0.239-0.079,0.358-0.121c0.392-0.136,0.784-0.282,1.178-0.439
		c0.044-0.018,0.088-0.033,0.132-0.051c0.435-0.176,0.872-0.369,1.31-0.571c0.116-0.053,0.232-0.108,0.346-0.164
		c0.355-0.169,0.71-0.345,1.066-0.53c0.098-0.051,0.196-0.1,0.295-0.152c0.439-0.233,0.878-0.476,1.318-0.731
		c0.091-0.052,0.181-0.108,0.272-0.162c0.366-0.216,0.732-0.439,1.098-0.671c0.113-0.071,0.226-0.142,0.339-0.215
		c0.446-0.287,0.894-0.581,1.341-0.89c0.015-0.01,0.029-0.021,0.044-0.031c0.434-0.299,0.867-0.611,1.3-0.929
		c0.111-0.081,0.222-0.164,0.333-0.247c0.395-0.294,0.789-0.594,1.184-0.904c0.056-0.044,0.113-0.087,0.168-0.13
		c0.451-0.356,0.9-0.721,1.35-1.095c0.091-0.076,0.182-0.153,0.273-0.23c0.379-0.318,0.757-0.642,1.135-0.973
		c0.086-0.075,0.172-0.149,0.258-0.225c0.453-0.399,0.903-0.805,1.354-1.221c0.039-0.035,0.076-0.072,0.115-0.107
		c0.413-0.383,0.824-0.773,1.235-1.168c0.088-0.084,0.175-0.168,0.262-0.253c0.898-0.872,1.79-1.773,2.672-2.697
		c0.071-0.074,0.142-0.149,0.213-0.224c0.413-0.436,0.826-0.877,1.235-1.322c0.028-0.031,0.057-0.062,0.086-0.093
		c0.452-0.493,0.9-0.992,1.345-1.497c0.033-0.039,0.068-0.077,0.101-0.116c0.413-0.468,0.823-0.941,1.23-1.416
		c0.045-0.052,0.09-0.104,0.133-0.156c0.875-1.027,1.737-2.072,2.583-3.13c0.04-0.05,0.08-0.1,0.12-0.15
		c0.855-1.072,1.694-2.156,2.513-3.248c0.015-0.019,0.028-0.039,0.043-0.057c1.252-1.671,2.461-3.357,3.617-5.043
		c0.007-0.01,0.015-0.021,0.021-0.03c0.775-1.13,1.526-2.261,2.251-3.384c0,0,0-0.001,0.001-0.001
		C499.439,46.737,497.762,45.712,496.586,44.098z"/>
</g>
<g>
	<path style="fill:#ACAAB1;" d="M446.662,17.183c0.053-0.124,0.106-0.244,0.16-0.367C446.769,16.937,446.716,17.057,446.662,17.183z
		"/>
	<path style="fill:#ACAAB1;" d="M445.222,20.86c0.061-0.167,0.121-0.337,0.182-0.502C445.343,20.522,445.284,20.692,445.222,20.86z"
		/>
	<path style="fill:#ACAAB1;" d="M447.997,14.267c0.056-0.115,0.114-0.233,0.17-0.345C448.111,14.034,448.054,14.152,447.997,14.267z
		"/>
	<path style="fill:#ACAAB1;" d="M443.978,24.525c0.062-0.193,0.123-0.381,0.185-0.571C444.101,24.145,444.04,24.333,443.978,24.525z
		"/>
	<path style="fill:#ACAAB1;" d="M444.585,22.679c0.068-0.2,0.136-0.399,0.204-0.597C444.721,22.279,444.653,22.478,444.585,22.679z"
		/>
	<path style="fill:#ACAAB1;" d="M446.012,18.766c0.003-0.008,0.006-0.018,0.01-0.026C446.019,18.749,446.015,18.757,446.012,18.766z
		"/>
	<path style="fill:#ACAAB1;" d="M447.312,15.711c0.065-0.142,0.129-0.282,0.195-0.421C447.441,15.429,447.377,15.569,447.312,15.711
		z"/>
	<polygon style="fill:#ACAAB1;" points="501.247,47.129 501.247,47.129 501.248,47.129 	"/>
	<path style="fill:#ACAAB1;" d="M448.83,12.646c-0.222,0.411-0.443,0.838-0.662,1.274c-0.057,0.114-0.114,0.23-0.17,0.345
		c-0.165,0.334-0.329,0.675-0.491,1.023c-0.065,0.14-0.13,0.279-0.195,0.421c-0.164,0.36-0.327,0.728-0.49,1.104
		c-0.053,0.123-0.106,0.242-0.16,0.367c-0.215,0.506-0.429,1.023-0.641,1.558c-0.003,0.008-0.006,0.018-0.01,0.026
		c-0.204,0.516-0.407,1.048-0.607,1.591c-0.06,0.165-0.121,0.335-0.182,0.502c-0.145,0.4-0.29,0.807-0.434,1.223
		c-0.068,0.197-0.137,0.395-0.204,0.597c-0.141,0.417-0.282,0.844-0.421,1.276c-0.062,0.191-0.123,0.378-0.185,0.571
		c-0.197,0.622-0.393,1.254-0.587,1.905c-0.164,0.552-0.315,1.084-0.472,1.626c1.499,0.704,3.229,0.947,4.971,0.569
		c0.321-0.07,32.51-6.744,48.695,15.471c1.175,1.613,2.852,2.638,4.661,3.031c0,0,0,0,0-0.001c2.953-4.578,5.469-9.05,7.368-13.033
		C490.321,9.926,459.991,11.212,448.83,12.646z"/>
</g>
<g>
</g>
<g>
</g>
<g>
</g>
<g>
</g>
<g>
</g>
<g>
</g>
<g>
</g>
<g>
</g>
<g>
</g>
<g>
</g>
<g>
</g>
<g>
</g>
<g>
</g>
<g>
</g>
<g>
</g>
</svg>
