<svg id="Capa_1" enable-background="new 0 0 512 512" height="150px" viewBox="0 0 512 512" width="150px" xmlns="http://www.w3.org/2000/svg"><g><path d="m291.021 251.754 74.497-106.745c21.499-30.936 31.28-68.518 27.59-106.01l-1.09-11.075c-.732-7.436-10.33-9.934-14.595-3.798l-122.453 175.752c10.016 14.413 32.085 46.169 36.051 51.876z" fill="#b5dcff"/><path d="m393.536 44.394c-.115-1.798-.251-3.597-.429-5.395l-1.09-11.075c-.732-7.436-10.33-9.934-14.595-3.798l-122.452 175.752c3.832 5.513 9.427 13.565 15.098 21.726z" fill="#8bcaff"/><path d="m255.098 272.999-2.371 1.648c-5.006 3.479-11.884 2.241-15.363-2.765l-15.943-22.942-24.434 34.616c2.45-.089 4.947.573 7.115 2.079l21.494 14.937c2.004 1.393 3.44 3.298 4.254 5.417l27.622-30.401z" fill="#b5dcff"/><path d="m216.851 294.496 18.255-25.863-13.685-19.692-24.434 34.616c2.45-.089 4.947.573 7.115 2.079z" fill="#8bcaff"/><path d="m307.88 285.636-21.494 14.937c-2.004 1.393-3.44 3.299-4.254 5.417l-29.532-32.214 37.683-25.597 24.712 35.378c-2.449-.089-4.947.573-7.115 2.079z" fill="#dbedff"/><path d="m270.137 261.864-17.537 11.913 29.531 32.214c.815-2.119 2.25-4.024 4.254-5.417l11.751-8.166z" fill="#b5dcff"/><path d="m226.44 299.569-21.494-14.937c-5.325-3.7-12.641-2.384-16.341 2.941l-22.473 32.338c-9.484 13.646-26.736 19.545-42.589 14.56-38.541-12.118-80.484 2.222-103.54 35.398l-7.376 10.614c-22.243 32.006-14.328 75.983 17.678 98.225 32.006 22.242 75.983 14.328 98.225-17.678l100.851-145.12c3.7-5.325 2.383-12.641-2.941-16.341zm-125.902 142.008c-11.648 16.761-34.926 20.737-51.498 8.629-16.087-11.754-19.402-34.472-8.032-50.832l6.986-10.052c14.625-21.045 40.877-30.02 65.324-22.334.125.039.25.078.375.117 15.715 4.85 22.319 23.428 12.934 36.934z" fill="#ff636e"/><g fill="#ff4654"><path d="m115.837 367.885c14.148 5.811 19.734 23.281 10.789 36.153l-26.088 37.539c-6.113 8.797-15.432 14.065-25.302 15.341 15.97 8.087 35.921 3.374 46.421-11.736l26.088-37.539c9.386-13.505 2.781-32.084-12.934-36.934-.125-.039-.25-.078-.375-.117-6.157-1.935-12.428-2.811-18.599-2.707z"/><path d="m51.424 482.313c-32.006-22.243-39.921-66.219-17.678-98.225l7.376-10.614c18.539-26.677 49.291-41.16 80.666-39.516-38.054-11.147-79.079 3.237-101.785 35.911l-7.376 10.614c-22.243 32.006-14.328 75.983 17.678 98.225 11.951 8.305 25.571 12.402 39.106 12.614-6.246-2.082-12.307-5.061-17.987-9.009z"/><path d="m144.661 338.076c15.853 4.984 33.105-.914 42.589-14.56l22.473-32.338c.521-.749 1.119-1.41 1.768-1.998l-6.546-4.549c-5.324-3.7-12.641-2.384-16.341 2.941l-22.473 32.338c-6.731 9.685-17.376 15.462-28.656 16.221 2.405.549 4.802 1.195 7.186 1.945z"/></g><path d="m282.62 315.91 100.851 145.12c22.242 32.006 66.219 39.921 98.225 17.678 32.006-22.242 39.921-66.219 17.678-98.225l-7.376-10.614c-23.056-33.176-64.999-47.516-103.54-35.398-15.853 4.984-33.105-.914-42.589-14.56l-22.473-32.338c-3.7-5.325-11.016-6.641-16.341-2.941l-21.494 14.937c-5.325 3.7-6.641 11.016-2.941 16.341zm102.755 88.128c-9.385-13.505-2.781-32.084 12.934-36.934l.375-.117c24.447-7.686 50.699 1.289 65.324 22.334l6.986 10.052c11.37 16.36 8.055 39.079-8.032 50.832-16.572 12.108-39.85 8.132-51.498-8.629z" fill="#ff636e"/><g fill="#ff4654"><path d="m462.96 450.206c-3.292 2.405-6.85 4.165-10.527 5.327 10.665 3.35 22.747 1.803 32.504-5.327 16.087-11.754 19.402-34.472 8.032-50.832l-6.986-10.052c-13.316-19.161-36.269-28.311-58.724-23.995 14.545 2.803 27.815 11.143 36.747 23.995l6.986 10.052c11.37 16.36 8.055 39.078-8.032 50.832z"/><path d="m405.448 461.03-100.851-145.12c-3.7-5.325-2.384-12.641 2.941-16.341l16.316-11.338-.457-.658c-3.7-5.324-11.017-6.641-16.341-2.941l-21.495 14.937c-5.324 3.7-6.641 11.016-2.941 16.341l100.851 145.12c15.971 22.981 43.146 33.54 69.05 29.434-18.386-2.872-35.615-12.947-47.073-29.434z"/></g><path d="m253.87 195.782c-13.283 8.472-31.155 4.985-40.222-8.062l-95.456-137.392c-.893 33.669 8.957 66.862 28.29 94.681l89.41 128.657c3.479 5.006 10.357 6.244 15.363 2.765l39.557-27.49z" fill="#b5dcff"/><path d="m266.524 263.364-50.503-72.672c-.842-.93-1.64-1.916-2.373-2.972l-95.456-137.392c-.893 33.669 8.957 66.862 28.29 94.681l89.41 128.657c3.479 5.006 10.357 6.244 15.363 2.765l16.578-11.521c-.473-.468-.915-.98-1.309-1.546z" fill="#8bcaff"/><path d="m134.577 24.125c-4.264-6.136-13.863-3.638-14.595 3.798l-1.09 11.075c-.439 4.458-.681 8.917-.742 13.366l95.497 137.416c9.292 13.371 27.834 16.708 41.205 7.416z" fill="#dbedff"/><g><path d="m248.914 251.214c-5.751 0-10.302-4.692-10.302-10.302 0-4.975 3.61-9.216 8.293-10.096 3.348-.68 6.902.423 9.292 2.812 6.47 6.435 1.88 17.586-7.283 17.586z" fill="#dbedff"/></g></g></svg>