<svg id="Capa_1" enable-background="new 0 0 512 512" height="150px" viewBox="0 0 512 512" width="150px" xmlns="http://www.w3.org/2000/svg"><g><g><path d="m289.857 251.701 72.315-103.619c20.87-30.03 30.364-66.511 26.782-102.905l-1.058-10.751c-.711-7.218-10.028-9.643-14.167-3.687l-118.867 170.605c9.722 13.991 31.145 44.816 34.995 50.357z" fill="#b5dcff"/><path d="m389.369 50.414c-.112-1.746-.244-3.491-.416-5.237l-1.058-10.751c-.711-7.219-10.028-9.643-14.167-3.687l-118.866 170.605c3.719 5.352 9.151 13.168 14.656 21.089z" fill="#8bcaff"/><path d="m254.986 272.324-2.301 1.599c-4.859 3.377-11.536 2.175-14.913-2.684l-15.476-22.27-23.718 33.602c2.378-.086 4.802.556 6.906 2.019l20.865 14.5c1.946 1.352 3.339 3.202 4.13 5.258l26.812-29.51z" fill="#b5dcff"/><path d="m217.859 293.191 17.721-25.106-13.284-19.115-23.718 33.602c2.378-.086 4.802.556 6.906 2.019z" fill="#8bcaff"/><path d="m306.222 284.59-20.865 14.5c-1.946 1.352-3.339 3.202-4.13 5.258l-28.667-31.271 36.579-24.848 23.989 34.342c-2.377-.085-4.801.557-6.906 2.019z" fill="#dbedff"/><path d="m269.584 261.515-17.023 11.563 28.666 31.271c.791-2.057 2.184-3.906 4.13-5.258l11.406-7.927z" fill="#b5dcff"/><path d="m227.167 298.115-20.865-14.5c-5.169-3.592-12.27-2.314-15.862 2.855l-21.815 31.391c-9.206 13.247-25.953 18.972-41.341 14.134-37.412-11.763-78.127 2.157-100.507 34.361l-7.16 10.303c-21.591 31.069-13.908 73.757 17.161 95.348 31.068 21.591 73.757 13.908 95.348-17.16l97.897-140.869c3.591-5.169 2.312-12.271-2.856-15.863zm-122.214 137.849c-11.307 16.27-33.903 20.129-49.989 8.376-15.616-11.409-18.833-33.462-7.797-49.344l6.781-9.758c14.197-20.428 39.679-29.141 63.41-21.68.121.038.242.076.364.113 15.255 4.708 21.666 22.742 12.555 35.852z" fill="#ff636e"/><g fill="#ff4654"><path d="m119.804 364.43c13.734 5.641 19.156 22.599 10.473 35.094l-25.323 36.439c-5.934 8.539-14.98 13.653-24.561 14.892 15.502 7.851 34.869 3.275 45.062-11.392l25.323-36.439c9.111-13.11 2.7-31.144-12.555-35.852-.121-.037-.243-.075-.364-.113-5.977-1.88-12.065-2.73-18.055-2.629z"/><path d="m57.277 475.507c-31.069-21.591-38.752-64.28-17.161-95.348l7.16-10.303c17.996-25.896 47.848-39.955 78.303-38.359-36.939-10.821-76.762 3.142-98.804 34.859l-7.16 10.303c-21.591 31.068-13.908 73.757 17.16 95.348 11.601 8.062 24.822 12.039 37.96 12.244-6.06-2.021-11.944-4.912-17.458-8.744z"/><path d="m147.784 335.494c15.388 4.838 32.135-.887 41.341-14.134l21.815-31.391c.505-.727 1.086-1.369 1.716-1.939l-6.354-4.416c-5.168-3.592-12.271-2.314-15.862 2.855l-21.815 31.391c-6.534 9.402-16.867 15.009-27.817 15.745 2.335.534 4.662 1.162 6.976 1.889z"/></g><path d="m281.702 313.977 97.897 140.869c21.591 31.069 64.28 38.751 95.348 17.16 31.068-21.591 38.752-64.28 17.161-95.348l-7.16-10.303c-22.38-32.204-63.095-46.124-100.507-34.361-15.388 4.838-32.136-.887-41.341-14.134l-21.815-31.391c-3.592-5.169-10.694-6.447-15.862-2.855l-20.865 14.5c-5.17 3.593-6.448 10.695-2.856 15.863zm99.745 85.547c-9.111-13.11-2.7-31.144 12.555-35.852.121-.038.243-.075.364-.113 23.731-7.461 49.214 1.251 63.41 21.68l6.781 9.758c11.037 15.881 7.819 37.934-7.797 49.344-16.086 11.753-38.683 7.894-49.989-8.376z" fill="#ff636e"/><g fill="#ff4654"><path d="m456.76 444.34c-3.195 2.335-6.649 4.043-10.219 5.171 10.353 3.252 22.08 1.75 31.552-5.171 15.615-11.409 18.833-33.462 7.797-49.344l-6.781-9.758c-12.926-18.599-35.207-27.481-57.004-23.292 14.119 2.721 27 10.817 35.67 23.292l6.781 9.758c11.037 15.881 7.819 37.934-7.796 49.344z"/><path d="m400.932 454.846-97.897-140.869c-3.592-5.169-2.314-12.27 2.855-15.862l15.838-11.006-.444-.639c-3.592-5.168-10.694-6.447-15.862-2.855l-20.865 14.5c-5.168 3.592-6.447 10.694-2.855 15.862l97.897 140.869c15.503 22.308 41.883 32.557 67.028 28.572-17.848-2.787-34.572-12.567-45.695-28.572z"/></g><path d="m253.794 197.368c-12.894 8.224-30.243 4.839-39.044-7.826l-92.66-133.367c-.867 32.683 8.695 64.903 27.462 91.908l86.791 124.888c3.377 4.859 10.054 6.061 14.913 2.684l38.398-26.685z" fill="#b5dcff"/><path d="m266.077 262.971-49.023-70.543c-.818-.902-1.592-1.86-2.304-2.885l-92.66-133.368c-.867 32.683 8.695 64.903 27.462 91.908l86.791 124.888c3.377 4.859 10.054 6.061 14.913 2.684l16.092-11.183c-.459-.455-.889-.952-1.271-1.501z" fill="#8bcaff"/><path d="m137.995 30.739c-4.139-5.956-13.457-3.532-14.167 3.687l-1.058 10.751c-.426 4.327-.661 8.656-.72 12.974l92.7 133.391c9.02 12.979 27.019 16.218 39.998 7.199z" fill="#dbedff"/></g><g><path d="m50.648 450.534c19.399 14.174 46.765 9.716 60.573-10.151l25.323-36.439c11.963-17.215 3.736-41.053-16.551-47.313l-.277-.087c-26.878-8.449-55.738 1.417-71.818 24.554l-6.781 9.758c-13.399 19.277-9.122 46.049 9.531 59.678zm2.787-51.12 6.781-9.758c12.307-17.71 34.403-25.28 55-18.805l.402.125c10.446 3.223 14.809 15.483 8.607 24.406l-25.323 36.439c-8.921 12.837-26.719 15.871-39.405 6.6-12.131-8.862-14.851-26.361-6.062-39.007z"/><path d="m32.605 478.304c34.484 23.965 81.79 15.492 105.788-19.039l97.896-140.869c2.672-3.845 3.701-8.344 3.262-12.673l16.419-17.914 16.412 17.907c-.459 4.485.669 8.939 3.269 12.68l97.897 140.869c9.816 14.125 24.304 24.594 40.795 29.477 3.97 1.176 8.145-1.09 9.32-5.062s-1.091-8.145-5.063-9.321c-13.424-3.975-24.744-12.154-32.734-23.654l-97.897-140.869c-1.296-1.863-.686-4.27.977-5.424l20.864-14.5c1.577-1.097 4.092-.941 5.423.976l21.815 31.39c11.137 16.027 31.132 22.863 49.749 17.009 34.471-10.838 71.48 1.817 92.1 31.487l7.16 10.302c19.196 27.623 12.341 65.713-15.282 84.91-6.376 4.431-13.441 7.568-20.999 9.322-4.034.937-6.546 4.967-5.609 9.002.937 4.036 4.967 6.546 9.002 5.609 9.418-2.187 18.222-6.095 26.167-11.616 34.414-23.917 42.956-71.373 19.04-105.788l-7.16-10.303c-24.197-34.816-68.189-50.042-108.916-37.236-12.327 3.876-25.562-.649-32.933-11.259l-21.815-31.39c-2.607-3.75-6.399-6.364-10.776-7.493l-16.676-23.996 33.104-47.634c2.363-3.401 1.522-8.075-1.879-10.439-3.403-2.365-8.076-1.522-10.439 1.878l-29.918 43.051-25.862-37.214c.862-1.241 115.002-165.453 115.002-165.453.092-.035.337.028.399.101 0 0-.043-.63 1.093 10.92 3.404 34.587-5.644 69.352-25.477 97.891l-15.256 21.952c-2.363 3.401-1.522 8.075 1.879 10.439s8.076 1.521 10.439-1.878l15.255-21.952c21.864-31.462 31.839-69.789 28.086-107.919l-1.058-10.751c-1.395-14.153-19.682-18.902-27.79-7.232l-111.708 160.742-111.707-160.743c-8.117-11.676-26.398-6.914-27.79 7.232-2.152 21.857-1.813 24.374-1.813 24.374-.448 33.542 9.58 66.582 28.841 94.297l68.34 98.338-16.677 23.997c-4.377 1.129-8.169 3.742-10.776 7.492l-21.814 31.391c-7.372 10.61-20.609 15.135-32.934 11.259-40.444-12.716-84.552 2.178-108.915 37.236l-7.16 10.303c-23.915 34.416-15.374 81.872 19.04 105.788zm268.089-200.323-20.309 14.113c-.001.001-.002.002-.003.002-.027.019-.055.039-.082.058l-15.306-16.7 22.889-15.907zm-169.26-242.848c.064-.077.307-.14.396-.106.053.026 111.773 160.803 111.807 160.852-8.32 2.083-17.443-1.028-22.62-8.478l-91.307-131.388c.216-7.341 1.663-20.746 1.724-20.88zm24.386 108.807c-12.282-17.672-20.423-37.732-24.037-58.659l76.917 110.68c9.804 14.107 28.119 19.314 43.818 12.697l26.805 38.571c-6.703 4.658-25.543 17.751-32.239 22.405-1.457 1.011-3.458.654-4.473-.806zm65.155 120.041 9.317 13.407c2.22 3.195 5.397 5.52 8.719 6.724l-7.37 8.042c-.028-.02-.057-.04-.085-.059l-20.31-14.114zm-195.09 117.096 7.16-10.303c20.624-29.679 57.64-42.322 92.098-31.486 18.624 5.854 38.612-.982 49.751-17.009l21.814-31.391c1.302-1.874 3.813-2.095 5.423-.976l20.865 14.5c1.676 1.165 2.248 3.594.976 5.423l-97.896 140.869c-19.241 27.689-57.219 34.526-84.909 15.282-27.624-19.196-34.479-57.286-15.282-84.909z"/><path d="m259.093 241.314c0-4.718-3.278-8.818-8.04-9.8-6.045-1.224-11.96 3.401-11.96 9.8 0 5.535 4.514 10 10 10 5.521 0 10-4.498 10-10z"/><path d="m470.825 390.854-6.781-9.757c-16.079-23.138-44.943-33.007-71.819-24.554l-.325.101c-20.159 6.221-28.501 30.031-16.503 47.299l25.324 36.439c13.637 19.624 40.966 24.478 60.573 10.152 18.652-13.629 22.928-40.401 9.531-59.68zm-18.381 47.568c-12.676 9.261-30.477 6.25-39.405-6.601l-25.324-36.439c-6.216-8.945-1.808-21.191 8.594-24.401l.415-.13c20.587-6.473 42.692 1.089 55.002 18.806l6.781 9.757c8.788 12.646 6.068 30.145-6.063 39.008z"/></g></g></svg>